<svg xmlns="http://www.w3.org/2000/svg" xmlns:xlink="http://www.w3.org/1999/xlink" width="195.164" height="66.19" viewBox="0 0 195.164 66.19">
  <defs>
    <clipPath id="clip-path">
      <rect id="Rectangle_15" data-name="Rectangle 15" width="195.164" height="66.19" fill="none"></rect>
    </clipPath>
  </defs>
  <g id="Group_6" data-name="Group 6" transform="translate(0 0)">
    <path id="Path_24" data-name="Path 24" d="M0,18.565V27.6l15.566-13.99V0Z" transform="translate(0 -0.001)" fill="#0d689b"></path>
    <path id="Path_25" data-name="Path 25" d="M0,48.059V57.09l15.566-7.774V35.707Z" transform="translate(0 -15.905)" fill="#0d689b"></path>
    <path id="Path_26" data-name="Path 26" d="M0,77.926v8.723H15.568V71.716Z" transform="translate(-0.001 -31.946)" fill="#0d689b"></path>
    <path id="Path_27" data-name="Path 27" d="M45.007,13.612l11.637,12.66V15.865L45.007,0Z" transform="translate(-20.048 -0.001)" fill="#0d689b"></path>
    <path id="Path_28" data-name="Path 28" d="M56.644,46.99v9.739L45.008,49.316V35.707Z" transform="translate(-20.048 -15.906)" fill="#0d689b"></path>
    <path id="Path_29" data-name="Path 29" d="M56.647,77.806V86.65H45.01V71.717Z" transform="translate(-20.05 -31.946)" fill="#0d689b"></path>
    <rect id="Rectangle_12" data-name="Rectangle 12" width="9.391" height="13.61" transform="translate(15.567 0)" fill="#1d82aa"></rect>
    <rect id="Rectangle_13" data-name="Rectangle 13" width="9.391" height="13.61" transform="translate(15.567 19.8)" fill="#1d82aa"></rect>
    <rect id="Rectangle_14" data-name="Rectangle 14" width="9.393" height="14.946" transform="translate(15.567 39.771)" fill="#1d82aa"></rect>
    <g id="Group_5" data-name="Group 5" transform="translate(0 0)">
      <g id="Group_4" data-name="Group 4" clip-path="url(#clip-path)">
        <path id="Path_30" data-name="Path 30" d="M102.991,42.267a4.325,4.325,0,0,1-1.148,1.224,2.76,2.76,0,0,1-1.525.375,2.418,2.418,0,0,1-1.687-.6,3.915,3.915,0,0,1-.987-2.1l-.55-2.5a17.046,17.046,0,0,0-.563-2,2.579,2.579,0,0,0-.787-1.125,2.289,2.289,0,0,0-1.475-.424H91.9v5.748a4.475,4.475,0,0,0,.151,1.375.9.9,0,0,0,.562.575,4.956,4.956,0,0,0,1.312.2v.5q-1.15-.075-3.174-.075-2.149,0-3.2.075v-.5a4.956,4.956,0,0,0,1.312-.2.9.9,0,0,0,.562-.575,4.515,4.515,0,0,0,.15-1.375v-12.4a4.52,4.52,0,0,0-.15-1.375.9.9,0,0,0-.562-.575,5.008,5.008,0,0,0-1.312-.2v-.5Q88.6,25.9,90.6,25.9l2.7-.025c.316-.017.674-.025,1.074-.025a7.142,7.142,0,0,1,4.461,1.212,3.791,3.791,0,0,1,1.562,3.136,4.594,4.594,0,0,1-.462,1.962,4.67,4.67,0,0,1-1.549,1.774,6.5,6.5,0,0,1-2.837,1.063l.3.05a4.472,4.472,0,0,1,2.4,1,4.506,4.506,0,0,1,1.1,2.3l.625,2.549a5.656,5.656,0,0,0,.525,1.6.843.843,0,0,0,.75.45,1.123,1.123,0,0,0,.713-.225,3.978,3.978,0,0,0,.662-.725ZM92.583,26.5a.988.988,0,0,0-.537.625,4.51,4.51,0,0,0-.151,1.35V34.62H93.57q2.474,0,3.4-1.1a4.6,4.6,0,0,0,.924-3.049,4.4,4.4,0,0,0-.974-3.1,4.166,4.166,0,0,0-3.174-1.05,2.968,2.968,0,0,0-1.162.175" transform="translate(-38.997 -11.503)" fill="#fff"></path>
        <path id="Path_31" data-name="Path 31" d="M129.719,43.517q-1.7-.075-5.722-.075-4.8,0-7.248.075v-.5a4.956,4.956,0,0,0,1.312-.2.9.9,0,0,0,.562-.575,4.517,4.517,0,0,0,.15-1.375v-12.4a4.52,4.52,0,0,0-.15-1.375.9.9,0,0,0-.562-.575,5.008,5.008,0,0,0-1.312-.2v-.5Q119.2,25.9,124,25.9q3.673,0,5.223-.075a28.311,28.311,0,0,0-.175,2.949,12.594,12.594,0,0,0,.075,1.549h-.575a11.685,11.685,0,0,0-.45-2.412,2.013,2.013,0,0,0-.925-1.149A4.183,4.183,0,0,0,125.2,26.4h-2.075a4.57,4.57,0,0,0-1.312.137.865.865,0,0,0-.562.563,4.48,4.48,0,0,0-.151,1.375v5.9h1.65a1.89,1.89,0,0,0,1.986-1.387A9.025,9.025,0,0,0,124,31.57l.075-.5h.575q-.075,1.049-.075,2.35v1.2q0,1.274.15,3.549h-.575c-.017-.116-.068-.521-.15-1.212a2.47,2.47,0,0,0-.688-1.563,2.2,2.2,0,0,0-1.562-.525H121.1v6a4.478,4.478,0,0,0,.151,1.375.859.859,0,0,0,.562.562,4.482,4.482,0,0,0,1.312.138h1.825a5.363,5.363,0,0,0,2.361-.413A2.481,2.481,0,0,0,128.5,41.2a10,10,0,0,0,.55-2.686h.575a17.086,17.086,0,0,0-.075,1.8q0,1.425.175,3.2" transform="translate(-52.005 -11.503)" fill="#fff"></path>
        <path id="Path_32" data-name="Path 32" d="M156.889,26.323l-9.971,16.619h4.9a5.086,5.086,0,0,0,2.362-.438,2.581,2.581,0,0,0,1.187-1.412,11.19,11.19,0,0,0,.55-2.824h.575q-.075.774-.075,2.049,0,1.425.175,3.2-1.85-.075-6.223-.075-4.273,0-6.173.075v-.5L154.24,26.4h-4.873a5.089,5.089,0,0,0-2.362.438,2.579,2.579,0,0,0-1.187,1.412,11.155,11.155,0,0,0-.55,2.824h-.575q.075-.8.075-2.05,0-1.425-.175-3.2,1.849.075,6.223.075,4.248,0,6.073-.075Z" transform="translate(-64.231 -11.503)" fill="#fff"></path>
        <path id="Path_33" data-name="Path 33" d="M177.336,26.323a5.012,5.012,0,0,0-1.312.2.9.9,0,0,0-.562.576,4.474,4.474,0,0,0-.151,1.374v12.4a4.471,4.471,0,0,0,.151,1.374.9.9,0,0,0,.562.575,4.956,4.956,0,0,0,1.312.2v.5q-1.15-.075-3.174-.075-2.149,0-3.2.075v-.5a4.952,4.952,0,0,0,1.312-.2.9.9,0,0,0,.562-.575,4.511,4.511,0,0,0,.15-1.374v-12.4a4.513,4.513,0,0,0-.15-1.374.9.9,0,0,0-.562-.576,5.008,5.008,0,0,0-1.312-.2v-.5q1.05.075,3.2.075,2,0,3.174-.075Z" transform="translate(-76.155 -11.503)" fill="#fff"></path>
        <path id="Path_34" data-name="Path 34" d="M199.687,28.034q2.2,2.213,2.2,6.436a10.144,10.144,0,0,1-1.075,4.774A7.5,7.5,0,0,1,197.7,42.4a10,10,0,0,1-4.861,1.112l-1.449-.025q-1.4-.05-2.05-.05-2.05,0-3.1.075v-.5a4.956,4.956,0,0,0,1.312-.2.9.9,0,0,0,.562-.575,4.514,4.514,0,0,0,.15-1.375v-12.4a4.519,4.519,0,0,0-.15-1.375.9.9,0,0,0-.562-.575,5.008,5.008,0,0,0-1.312-.2v-.5q.874.075,2.425.075l2.124-.025q1.7-.05,2.274-.05,4.424,0,6.623,2.211m-8.41-1.587a.988.988,0,0,0-.537.625,4.51,4.51,0,0,0-.151,1.35v12.5a4.515,4.515,0,0,0,.151,1.35.985.985,0,0,0,.537.624,3.03,3.03,0,0,0,1.187.175,7.775,7.775,0,0,0,4.173-.962,5.092,5.092,0,0,0,2.137-2.811,15.321,15.321,0,0,0,.612-4.724,13.649,13.649,0,0,0-.675-4.686,5.106,5.106,0,0,0-2.187-2.712,7.966,7.966,0,0,0-4.086-.9,2.968,2.968,0,0,0-1.162.175" transform="translate(-82.96 -11.503)" fill="#fff"></path>
        <path id="Path_35" data-name="Path 35" d="M231.387,43.517q-1.7-.075-5.722-.075-4.8,0-7.248.075v-.5a4.956,4.956,0,0,0,1.312-.2.9.9,0,0,0,.562-.575,4.516,4.516,0,0,0,.15-1.375v-12.4a4.519,4.519,0,0,0-.15-1.375.9.9,0,0,0-.562-.575,5.008,5.008,0,0,0-1.312-.2v-.5q2.449.075,7.248.075,3.673,0,5.223-.075a28.311,28.311,0,0,0-.175,2.949,12.6,12.6,0,0,0,.075,1.549h-.575a11.683,11.683,0,0,0-.45-2.412,2.013,2.013,0,0,0-.925-1.149,4.183,4.183,0,0,0-1.974-.363H224.79a4.57,4.57,0,0,0-1.312.137.865.865,0,0,0-.562.563,4.48,4.48,0,0,0-.151,1.375v5.9h1.65a1.89,1.89,0,0,0,1.986-1.387,9.027,9.027,0,0,0,.263-1.412l.075-.5h.575q-.075,1.049-.075,2.35v1.2q0,1.274.15,3.549h-.575c-.017-.116-.068-.521-.15-1.212a2.47,2.47,0,0,0-.688-1.563,2.2,2.2,0,0,0-1.562-.525h-1.65v6a4.478,4.478,0,0,0,.151,1.375.859.859,0,0,0,.562.562,4.482,4.482,0,0,0,1.312.138h1.824a5.364,5.364,0,0,0,2.361-.413,2.481,2.481,0,0,0,1.187-1.325,10,10,0,0,0,.55-2.686h.575a17.083,17.083,0,0,0-.075,1.8q0,1.425.175,3.2" transform="translate(-97.293 -11.503)" fill="#fff"></path>
        <path id="Path_36" data-name="Path 36" d="M261.558,26.323a3.51,3.51,0,0,0-1.3.262,1.11,1.11,0,0,0-.576.7,5.2,5.2,0,0,0-.15,1.437v14.92h-.575l-10.5-16.22v13.2a4.8,4.8,0,0,0,.163,1.45,1.125,1.125,0,0,0,.638.687,4.333,4.333,0,0,0,1.474.263v.5q-.9-.075-2.549-.075-1.5,0-2.325.075v-.5a3.473,3.473,0,0,0,1.3-.263,1.107,1.107,0,0,0,.575-.7,5.194,5.194,0,0,0,.15-1.437V28.472a4.513,4.513,0,0,0-.15-1.374.9.9,0,0,0-.562-.576,5.008,5.008,0,0,0-1.312-.2v-.5q.824.075,2.325.075,1.124,0,1.949-.075l8.822,13.6v-10.7a4.8,4.8,0,0,0-.163-1.45,1.13,1.13,0,0,0-.637-.687,4.406,4.406,0,0,0-1.475-.262v-.5q.9.075,2.549.075,1.5,0,2.324-.075Z" transform="translate(-109.519 -11.503)" fill="#fff"></path>
        <path id="Path_37" data-name="Path 37" d="M288.357,25.617a8.654,8.654,0,0,1,2.049,1.2.809.809,0,0,0,.475.225q.5,0,.649-1.5h.575q-.1,1.625-.1,5.747h-.576a19.487,19.487,0,0,0-.5-2.337,4.179,4.179,0,0,0-.75-1.362,4.628,4.628,0,0,0-1.912-1.462,6.437,6.437,0,0,0-2.512-.487,4.144,4.144,0,0,0-2.837,1.075,6.988,6.988,0,0,0-1.886,3.061,14.5,14.5,0,0,0-.675,4.661,13.43,13.43,0,0,0,.725,4.674,6.552,6.552,0,0,0,2.011,2.961,4.582,4.582,0,0,0,2.912,1.013,6.4,6.4,0,0,0,2.424-.475,4.069,4.069,0,0,0,1.849-1.425,4.783,4.783,0,0,0,.725-1.5,17.719,17.719,0,0,0,.424-2.449h.576q0,4.3.1,6h-.575a4.435,4.435,0,0,0-.212-1.137q-.137-.337-.387-.337a1.1,1.1,0,0,0-.525.2,10.534,10.534,0,0,1-2.149,1.212,6.63,6.63,0,0,1-2.474.413,7.916,7.916,0,0,1-4.161-1.075,7.169,7.169,0,0,1-2.774-3.111,11.046,11.046,0,0,1-.987-4.861,11.2,11.2,0,0,1,1.012-4.873,7.849,7.849,0,0,1,2.824-3.3,7.4,7.4,0,0,1,4.111-1.174,6.811,6.811,0,0,1,2.549.425" transform="translate(-123.771 -11.222)" fill="#fff"></path>
        <path id="Path_38" data-name="Path 38" d="M314.742,26.323a5.012,5.012,0,0,0-1.312.2.9.9,0,0,0-.562.576,4.473,4.473,0,0,0-.151,1.374v12.4a4.47,4.47,0,0,0,.151,1.374.9.9,0,0,0,.562.575,4.956,4.956,0,0,0,1.312.2v.5q-1.15-.075-3.174-.075-2.149,0-3.2.075v-.5a4.952,4.952,0,0,0,1.312-.2.9.9,0,0,0,.562-.575,4.511,4.511,0,0,0,.15-1.374v-12.4a4.514,4.514,0,0,0-.15-1.374.9.9,0,0,0-.562-.576,5.009,5.009,0,0,0-1.312-.2v-.5q1.05.075,3.2.075,2,0,3.174-.075Z" transform="translate(-137.362 -11.503)" fill="#fff"></path>
        <path id="Path_39" data-name="Path 39" d="M337.507,42.917v.5q-1-.075-2.674-.075-2.149,0-3.2.075v-.5A4.054,4.054,0,0,0,333,42.679a.687.687,0,0,0,.413-.687,3.419,3.419,0,0,0-.3-1.175l-1.524-4.1h-6.048l-1.025,2.649a6.544,6.544,0,0,0-.5,2.049,1.242,1.242,0,0,0,.537,1.125,3.182,3.182,0,0,0,1.638.375v.5q-1.425-.075-2.875-.075-1.124,0-1.874.075v-.5a3.11,3.11,0,0,0,1.974-2.174L329.285,25.6h.4l6.1,15.719q.6,1.551,1.724,1.6m-6.123-6.7-2.8-7.473-2.849,7.473Z" transform="translate(-143.183 -11.403)" fill="#fff"></path>
        <path id="Path_40" data-name="Path 40" d="M112.737,67.854c-.225-3.231,1.136-13.2,1.48-15.429.345-.474,1.939-.087,1.853.6-.948,3.922-1.781,15.473-1.781,15.473,1.551.689,3.145,1.508,4.826,2.456l1.207.733c.647.043,1.336.043,2.112.043,2.154,0,4.654-.13,7.282-.344V66.82c.089-7.4.173-12.8,1.005-16.417.13-.216.862-.13,1.207.172.387.344.517.733.344.948-.431.6-.617,1.723-.79,5.644-.172,3.491-.215,8.274-.215,14.092,3.189-.3,6.335-.733,8.791-1.163.172-.172.13,1.077-1.379,1.465a48.275,48.275,0,0,1-7.412,1.207,93.062,93.062,0,0,0,.905,12.97,9.737,9.737,0,0,0,.431,2.285h-.043l.086.215c0,.216-.086.388-.387.344a2.271,2.271,0,0,1-1.164-.646c-.043.043-.086.043-.086-.043a.323.323,0,0,1-.043-.172,2.533,2.533,0,0,1-.215-.905c-1.552-5.6-6.249-10.644-10.6-13.876-2.111-.043-4.051-.129-5.861-.258.087,4.439.3,9.136.56,12.5l.129.215a.349.349,0,0,1-.344.388c-.474-.044-.733-.474-1.035-.862a86.9,86.9,0,0,1-.818-12.411C102.74,71.474,97.525,68.8,96.793,67.165A1.466,1.466,0,0,1,98,64.837a7.912,7.912,0,0,1,2.284-.043,43.334,43.334,0,0,1,12.454,3.059m0,3.232V69.017c-4.913-2.025-10-3.231-12.669-3.231-1.121,0-1.81.215-1.94.646-.344,1.422,7.284,3.749,14.609,4.654m1.552-1.379v1.551a32.835,32.835,0,0,0,3.49.216c-1.12-.647-2.284-1.207-3.49-1.767m15.427,3.145c-1.81.13-3.49.172-4.955.172-.991,0-1.9-.043-2.586-.043a32.687,32.687,0,0,1,8.059,8.532,85.485,85.485,0,0,1-.518-8.662" transform="translate(-43.004 -22.398)" fill="#e2ac76"></path>
        <path id="Path_41" data-name="Path 41" d="M179.343,85.249a3.819,3.819,0,0,1,.087,1.853,3.724,3.724,0,0,1-4.138,3.1,3.215,3.215,0,0,1-2.887-2.628c-.3-1.81.819-3.879,1.809-4.223.087,0,.13-.043.216-.043a1.192,1.192,0,0,1,1.336-1.035,4.378,4.378,0,0,1,2.758,1.508,27.337,27.337,0,0,0,3.189.173c2.025,0,3.706-.173,4.094-.173,1.25-.043.948.517-.086.862a21.048,21.048,0,0,1-6.378.6m-5.43,2.2c.215,1.25.689,1.724,1.508,1.68,1.9-.086,2.844-2.542,2.154-4.094a6.61,6.61,0,0,1-2.413-.818l-.087.086a3.913,3.913,0,0,0-1.163,3.145" transform="translate(-76.775 -36.648)" fill="#e2ac76"></path>
        <path id="Path_42" data-name="Path 42" d="M205.853,83.973a5.558,5.558,0,0,1-1.121-2.628,22.482,22.482,0,0,1-.43-3.836c-.086-1.207-.13-2.542-.13-3.921,0-1.12.044-2.327.044-3.491V68.547c-.906,2.413-2.672,6.334-5.689,6.55a4.052,4.052,0,0,1-2.629-.862,3.411,3.411,0,0,1-1.464-2.672,3.171,3.171,0,0,1,.9-2.2,5.493,5.493,0,0,1,3.965-1.422,10.893,10.893,0,0,1,2.888.388l.344.13a48.753,48.753,0,0,0,1.983-6.852l.087-1.552c.3-3.663,1.12-9.825,1.162-9.912.13-.646,1.553.13,1.639.776-.043,1.939-.517,7.024-.733,9.049-.087.862-.431,2.068-.474,2.8-.172,2.154-.258,3.835-.3,5.472-.086,2.025-.13,4.051-.13,5.99a39.442,39.442,0,0,0,.13,4.008,21.282,21.282,0,0,0,.388,3.706,10.668,10.668,0,0,0,.517,1.638l.086.086h.043a1.523,1.523,0,0,1,.69.689c.129.344-.043.517-.517.431a2.76,2.76,0,0,1-1.249-.819m-3.835-14.436.043-.086a13.508,13.508,0,0,0-1.767-.13,4.517,4.517,0,0,0-3.533,1.163,2.665,2.665,0,0,0-.776,1.81,1.544,1.544,0,0,0,.517,1.249,1.61,1.61,0,0,0,1.121.388c2.112-.215,3.491-2.585,4.4-4.395" transform="translate(-86.61 -22.229)" fill="#e2ac76"></path>
        <path id="Path_43" data-name="Path 43" d="M222.87,85.994a.767.767,0,0,1-.258-.043.931.931,0,0,1-.56-.475.7.7,0,0,1,0-.689c0-.043.086-.086.129-.086l.043-.043a40.89,40.89,0,0,0,5.99-3.835l.258-.215-1.9.215c-1.38.172-2.716.3-4.008.344a.921.921,0,0,1-.776-.6c-.172-.387-.086-.689.26-.689,2.542-.086,5.3-.517,8.058-.819.6-.087,1.25.689.948,1.121a19.486,19.486,0,0,1-5.516,4.266l-.087.043h.431c.69-.043,1.466-.043,2.241-.043a16.861,16.861,0,0,1,3.361.258,1.075,1.075,0,0,1,.819.775c.043.345-.172.561-.56.517a15.428,15.428,0,0,0-3.276-.3c-.689,0-1.379.043-1.982.086l-2.37.129a5.943,5.943,0,0,1-.776.087Zm1.594-10.687c-.56-.646-.344-1.293.518-.905a12.732,12.732,0,0,1,1.422,1.853,19.661,19.661,0,0,0,2.412-2.37c.518-.431.992.647.561,1.465-.647.862-1.68,1.594-2.327,2.5-.215.258-.776,0-1.034-.216-.6-.647-1.077-1.766-1.552-2.327" transform="translate(-98.758 -32.868)" fill="#e2ac76"></path>
        <path id="Path_44" data-name="Path 44" d="M251.682,85.249a3.819,3.819,0,0,1,.087,1.853,3.724,3.724,0,0,1-4.138,3.1,3.215,3.215,0,0,1-2.887-2.628c-.3-1.81.819-3.879,1.81-4.223.087,0,.13-.043.216-.043a1.192,1.192,0,0,1,1.336-1.035,4.378,4.378,0,0,1,2.758,1.508,27.337,27.337,0,0,0,3.189.173c2.025,0,3.706-.173,4.094-.173,1.25-.043.948.517-.086.862a21.048,21.048,0,0,1-6.378.6m-5.43,2.2c.215,1.25.689,1.724,1.508,1.68,1.9-.086,2.844-2.542,2.154-4.094a6.61,6.61,0,0,1-2.413-.818l-.086.086a3.913,3.913,0,0,0-1.163,3.145" transform="translate(-108.998 -36.648)" fill="#e2ac76"></path>
        <path id="Path_45" data-name="Path 45" d="M268.716,84.261a8.72,8.72,0,0,1,.172-1.853c.043-.3.431-.431.862-.216.259.172.6.6.517.905-.172,1.336,0,4.654.862,5.688.775-.043,2.154-3.317,2.585-4.567a1.657,1.657,0,0,1,.475-1.854c.517-.215,1.465.518,1.076,1.811v.043a8.347,8.347,0,0,0,2.586.388,27.47,27.47,0,0,0,3.965-.388c1.12-.172.344.862-.6,1.206a12.708,12.708,0,0,1-3.62.517,4.62,4.62,0,0,1-2.715-.6c-.475,1.594-1.595,3.878-2.672,4.223-.733.215-1.293.387-1.939-.258a8.068,8.068,0,0,1-1.552-5.043" transform="translate(-119.698 -36.564)" fill="#e2ac76"></path>
        <path id="Path_46" data-name="Path 46" d="M299.966,75.581c-.517,3.318-.172,6.507,2.026,8.791a6.293,6.293,0,0,0,4.783,1.81c6.766,0,12.324-5.9,14.868-11.979a12.3,12.3,0,0,0,1.12-5.6c-.087-.345-.215-.992-.043-1.164,1.249.431,1.12,4.955.086,7.5-2.5,6.162-7.843,12.238-15.514,12.238a8.778,8.778,0,0,1-7.025-2.886,9.556,9.556,0,0,1-2.111-5.129,7.48,7.48,0,0,1-.6.474c-1.206,1.077-4.05,3.275-6.334,3.275a2.809,2.809,0,0,1-1.552-.431,2.918,2.918,0,0,1-1.293-2.37,3.167,3.167,0,0,1,1.551-2.629,7.487,7.487,0,0,1,4.138-1.163,8.729,8.729,0,0,1,3.49.733h.043l.6-.819c.043-.345.086-.733.172-1.12a1.224,1.224,0,0,1,1.594.474m-3.145,2.327a6.159,6.159,0,0,0-1.68-.215c-2.155,0-5,.819-5.474,2.8a.785.785,0,0,0,.775,1.034,12.734,12.734,0,0,0,6.379-3.62" transform="translate(-128.455 -30.039)" fill="#e2ac76"></path>
      </g>
    </g>
  </g>
</svg>
